<svg xmlns="http://www.w3.org/2000/svg" viewBox="0 0 1280 1450">
  <defs>
    <marker id="arr" markerWidth="9" markerHeight="9" refX="8" refY="4.5" orient="auto"><polygon points="0 0, 9 4.5, 0 9" fill="#5a5a5a"/></marker>
  </defs>
  <rect x="0" y="0" width="1280" height="1450" fill="#f8f6f3"/>
  <text x="640.0" y="48" text-anchor="middle" font-family="-apple-system, Helvetica, Arial, sans-serif" font-size="22" font-weight="700" fill="#1a1a1a">Top-Up — System View</text>
  <text x="640.0" y="74" text-anchor="middle" font-family="-apple-system, Helvetica, Arial, sans-serif" font-size="13" fill="#5a5a5a">how a request is resolved across services, and what continues asynchronously after the response</text>
  <rect x="110" y="110" width="14" height="14" rx="3" ry="3" fill="#9dd4c7" stroke="#4a4a4a" stroke-width="1.5"/>
  <text x="132" y="122" font-family="-apple-system, Helvetica, Arial, sans-serif" font-size="12" fill="#1a1a1a">Investment-Wallet</text>
  <rect x="310" y="110" width="14" height="14" rx="3" ry="3" fill="#a8c5e6" stroke="#4a4a4a" stroke-width="1.5"/>
  <text x="332" y="122" font-family="-apple-system, Helvetica, Arial, sans-serif" font-size="12" fill="#1a1a1a">Payment-Gateway</text>
  <rect x="510" y="110" width="14" height="14" rx="3" ry="3" fill="#f4e4c1" stroke="#4a4a4a" stroke-width="1.5"/>
  <text x="532" y="122" font-family="-apple-system, Helvetica, Arial, sans-serif" font-size="12" fill="#1a1a1a">Provider (mock)</text>
  <rect x="710" y="110" width="14" height="14" rx="3" ry="3" fill="#e8e6e3" stroke="#4a4a4a" stroke-width="1.5"/>
  <text x="732" y="122" font-family="-apple-system, Helvetica, Arial, sans-serif" font-size="12" fill="#1a1a1a">Omnibus</text>
  <rect x="910" y="110" width="14" height="14" rx="3" ry="3" fill="#e9d8c4" stroke="#4a4a4a" stroke-width="1.5"/>
  <text x="932" y="122" font-family="-apple-system, Helvetica, Arial, sans-serif" font-size="12" fill="#1a1a1a">RabbitMQ</text>
  <circle cx="640.0" cy="180" r="10" fill="#1a1a1a"/>
  <line x1="640.0" y1="192" x2="640.0" y2="216" stroke="#5a5a5a" stroke-width="1.8" marker-end="url(#arr)"/>
  <rect x="480.0" y="218" width="320" height="60" rx="12" ry="12" fill="#9dd4c7" stroke="#4a4a4a" stroke-width="2"/>
  <text x="640.0" y="253.0" text-anchor="middle" font-family="-apple-system, Helvetica, Arial, sans-serif" font-size="14" font-weight="600" fill="#1a1a1a">POST /top-ups (Idempotency-Key)</text>
  <line x1="640.0" y1="278" x2="640.0" y2="314" stroke="#5a5a5a" stroke-width="1.8" marker-end="url(#arr)"/>
  <rect x="480.0" y="316" width="320" height="60" rx="12" ry="12" fill="#9dd4c7" stroke="#4a4a4a" stroke-width="2"/>
  <text x="640.0" y="351.0" text-anchor="middle" font-family="-apple-system, Helvetica, Arial, sans-serif" font-size="14" font-weight="600" fill="#1a1a1a">Wallet: claim key + insert PENDING</text>
  <line x1="640.0" y1="376" x2="640.0" y2="412" stroke="#5a5a5a" stroke-width="1.8" marker-end="url(#arr)"/>
  <rect x="480.0" y="414" width="320" height="60" rx="12" ry="12" fill="#9dd4c7" stroke="#4a4a4a" stroke-width="2"/>
  <text x="640.0" y="449.0" text-anchor="middle" font-family="-apple-system, Helvetica, Arial, sans-serif" font-size="14" font-weight="600" fill="#1a1a1a">Wallet → POST /charges</text>
  <line x1="640.0" y1="474" x2="640.0" y2="510" stroke="#5a5a5a" stroke-width="1.8" marker-end="url(#arr)"/>
  <rect x="480.0" y="512" width="320" height="60" rx="12" ry="12" fill="#a8c5e6" stroke="#4a4a4a" stroke-width="2"/>
  <text x="640.0" y="547.0" text-anchor="middle" font-family="-apple-system, Helvetica, Arial, sans-serif" font-size="14" font-weight="600" fill="#1a1a1a">PG: claim key + insert charge</text>
  <line x1="640.0" y1="572" x2="640.0" y2="608" stroke="#5a5a5a" stroke-width="1.8" marker-end="url(#arr)"/>
  <rect x="480.0" y="610" width="320" height="60" rx="12" ry="12" fill="#a8c5e6" stroke="#4a4a4a" stroke-width="2"/>
  <text x="640.0" y="645.0" text-anchor="middle" font-family="-apple-system, Helvetica, Arial, sans-serif" font-size="14" font-weight="600" fill="#1a1a1a">PG → mock provider</text>
  <line x1="640.0" y1="670" x2="640.0" y2="706" stroke="#5a5a5a" stroke-width="1.8" marker-end="url(#arr)"/>
  <rect x="480.0" y="708" width="320" height="60" rx="12" ry="12" fill="#f4e4c1" stroke="#4a4a4a" stroke-width="2"/>
  <text x="640.0" y="743.0" text-anchor="middle" font-family="-apple-system, Helvetica, Arial, sans-serif" font-size="14" font-weight="600" fill="#1a1a1a">Provider: returns + schedules webhook</text>
  <line x1="640.0" y1="768" x2="640.0" y2="804" stroke="#5a5a5a" stroke-width="1.8" marker-end="url(#arr)"/>
  <line x1="640.0" y1="770" x2="640.0" y2="820" stroke="#5a5a5a" stroke-width="1.8" marker-end="url(#arr)"/>
  <rect x="170" y="824" width="940" height="6" fill="#1a1a1a"/>
  <text x="180" y="812" font-family="-apple-system, Helvetica, Arial, sans-serif" font-size="12" font-style="italic" fill="#5a5a5a">fork: synchronous response unwinds upward;  settlement continues asynchronously</text>
  <line x1="250.0" y1="830" x2="250.0" y2="872" stroke="#5a5a5a" stroke-width="1.8" marker-end="url(#arr)"/>
  <rect x="110" y="874" width="280" height="60" rx="12" ry="12" fill="#a8c5e6" stroke="#4a4a4a" stroke-width="2"/>
  <text x="250.0" y="909.0" text-anchor="middle" font-family="-apple-system, Helvetica, Arial, sans-serif" font-size="14" font-weight="600" fill="#1a1a1a">PG → Wallet: ACCEPTED</text>
  <line x1="250.0" y1="934" x2="250.0" y2="970" stroke="#5a5a5a" stroke-width="1.8" marker-end="url(#arr)"/>
  <rect x="110" y="972" width="280" height="60" rx="12" ry="12" fill="#9dd4c7" stroke="#4a4a4a" stroke-width="2"/>
  <text x="250.0" y="1007.0" text-anchor="middle" font-family="-apple-system, Helvetica, Arial, sans-serif" font-size="14" font-weight="600" fill="#1a1a1a">Wallet: → PROCESSING</text>
  <line x1="250.0" y1="1032" x2="250.0" y2="1068" stroke="#5a5a5a" stroke-width="1.8" marker-end="url(#arr)"/>
  <rect x="110" y="1070" width="280" height="60" rx="12" ry="12" fill="#9dd4c7" stroke="#4a4a4a" stroke-width="2"/>
  <text x="250.0" y="1105.0" text-anchor="middle" font-family="-apple-system, Helvetica, Arial, sans-serif" font-size="14" font-weight="600" fill="#1a1a1a">Return 200 to client</text>
  <line x1="250.0" y1="1130" x2="250.0" y2="1166" stroke="#5a5a5a" stroke-width="1.8" marker-end="url(#arr)"/>
  <line x1="250.0" y1="1190" x2="250.0" y2="1158" stroke="#5a5a5a" stroke-width="1.8" marker-end="url(#arr)"/>
  <circle cx="250.0" cy="1174" r="14" fill="none" stroke="#4a4a4a" stroke-width="2"/>
  <circle cx="250.0" cy="1174" r="7" fill="#1a1a1a"/>
  <text x="250.0" y="1208" text-anchor="middle" font-family="-apple-system, Helvetica, Arial, sans-serif" font-size="12" font-style="italic" fill="#5a5a5a">client has 200 — sync done</text>
  <line x1="1010.0" y1="830" x2="1010.0" y2="872" stroke="#5a5a5a" stroke-width="1.8" marker-end="url(#arr)"/>
  <rect x="850" y="874" width="320" height="60" rx="12" ry="12" fill="#f4e4c1" stroke="#4a4a4a" stroke-width="2"/>
  <text x="1010.0" y="909.0" text-anchor="middle" font-family="-apple-system, Helvetica, Arial, sans-serif" font-size="14" font-weight="600" fill="#1a1a1a">Provider → Omnibus (signed webhook)</text>
  <line x1="1010.0" y1="934" x2="1010.0" y2="970" stroke="#5a5a5a" stroke-width="1.8" marker-end="url(#arr)"/>
  <rect x="850" y="972" width="320" height="60" rx="12" ry="12" fill="#e8e6e3" stroke="#4a4a4a" stroke-width="2"/>
  <text x="1010.0" y="1007.0" text-anchor="middle" font-family="-apple-system, Helvetica, Arial, sans-serif" font-size="14" font-weight="600" fill="#1a1a1a">Omnibus: verify + record statement</text>
  <line x1="1010.0" y1="1032" x2="1010.0" y2="1068" stroke="#5a5a5a" stroke-width="1.8" marker-end="url(#arr)"/>
  <rect x="850" y="1070" width="320" height="60" rx="12" ry="12" fill="#e9d8c4" stroke="#4a4a4a" stroke-width="2"/>
  <text x="1010.0" y="1105.0" text-anchor="middle" font-family="-apple-system, Helvetica, Arial, sans-serif" font-size="14" font-weight="600" fill="#1a1a1a">RabbitMQ: settlement.completed</text>
  <line x1="1010.0" y1="1130" x2="1010.0" y2="1166" stroke="#5a5a5a" stroke-width="1.8" marker-end="url(#arr)"/>
  <rect x="850" y="1168" width="320" height="60" rx="12" ry="12" fill="#9dd4c7" stroke="#4a4a4a" stroke-width="2"/>
  <text x="1010.0" y="1203.0" text-anchor="middle" font-family="-apple-system, Helvetica, Arial, sans-serif" font-size="14" font-weight="600" fill="#1a1a1a">Wallet consumer: → PAID + credit</text>
  <line x1="1010.0" y1="1228" x2="1010.0" y2="1264" stroke="#5a5a5a" stroke-width="1.8" marker-end="url(#arr)"/>
  <rect x="850" y="1266" width="320" height="60" rx="12" ry="12" fill="#e9d8c4" stroke="#4a4a4a" stroke-width="2"/>
  <text x="1010.0" y="1301.0" text-anchor="middle" font-family="-apple-system, Helvetica, Arial, sans-serif" font-size="14" font-weight="600" fill="#1a1a1a">RabbitMQ: top_up.paid</text>
  <line x1="1010.0" y1="1326" x2="1010.0" y2="1362" stroke="#5a5a5a" stroke-width="1.8" marker-end="url(#arr)"/>
  <line x1="1010.0" y1="1386" x2="1010.0" y2="1354" stroke="#5a5a5a" stroke-width="1.8" marker-end="url(#arr)"/>
  <circle cx="1010.0" cy="1370" r="14" fill="none" stroke="#4a4a4a" stroke-width="2"/>
  <circle cx="1010.0" cy="1370" r="7" fill="#1a1a1a"/>
  <text x="1010.0" y="1404" text-anchor="middle" font-family="-apple-system, Helvetica, Arial, sans-serif" font-size="12" font-style="italic" fill="#5a5a5a">PAID — balance credited</text>
</svg>