<svg xmlns="http://www.w3.org/2000/svg" viewBox="0 0 1280 1500">
  <defs>
    <marker id="arr" markerWidth="9" markerHeight="9" refX="8" refY="4.5" orient="auto"><polygon points="0 0, 9 4.5, 0 9" fill="#5a5a5a"/></marker>
  </defs>
  <rect x="0" y="0" width="1280" height="1500" fill="#f8f6f3"/>
  <text x="640.0" y="48" text-anchor="middle" font-family="-apple-system, Helvetica, Arial, sans-serif" font-size="22" font-weight="700" fill="#1a1a1a">Top-Up — System View</text>
  <text x="640.0" y="74" text-anchor="middle" font-family="-apple-system, Helvetica, Arial, sans-serif" font-size="13" fill="#5a5a5a">how a request is resolved across services, and what continues asynchronously after the response</text>
  <rect x="110" y="110" width="14" height="14" rx="3" ry="3" fill="#9dd4c7" stroke="#4a4a4a" stroke-width="1.5"/>
  <text x="132" y="122" font-family="-apple-system, Helvetica, Arial, sans-serif" font-size="12" fill="#1a1a1a">Investment-Wallet</text>
  <rect x="310" y="110" width="14" height="14" rx="3" ry="3" fill="#a8c5e6" stroke="#4a4a4a" stroke-width="1.5"/>
  <text x="332" y="122" font-family="-apple-system, Helvetica, Arial, sans-serif" font-size="12" fill="#1a1a1a">Payment-Gateway</text>
  <rect x="510" y="110" width="14" height="14" rx="3" ry="3" fill="#f4e4c1" stroke="#4a4a4a" stroke-width="1.5"/>
  <text x="532" y="122" font-family="-apple-system, Helvetica, Arial, sans-serif" font-size="12" fill="#1a1a1a">Provider (mock)</text>
  <rect x="710" y="110" width="14" height="14" rx="3" ry="3" fill="#e8e6e3" stroke="#4a4a4a" stroke-width="1.5"/>
  <text x="732" y="122" font-family="-apple-system, Helvetica, Arial, sans-serif" font-size="12" fill="#1a1a1a">Omnibus</text>
  <rect x="910" y="110" width="14" height="14" rx="3" ry="3" fill="#e9d8c4" stroke="#4a4a4a" stroke-width="1.5"/>
  <text x="932" y="122" font-family="-apple-system, Helvetica, Arial, sans-serif" font-size="12" fill="#1a1a1a">RabbitMQ</text>
  <circle cx="640.0" cy="180" r="10" fill="#1a1a1a"/>
  <line x1="640.0" y1="192" x2="640.0" y2="218" stroke="#5a5a5a" stroke-width="1.8" marker-end="url(#arr)"/>
  <rect x="536.0" y="196.0" width="208.0" height="16" fill="#f8f6f3"/>
  <text x="640.0" y="208.0" text-anchor="middle" font-family="-apple-system, Helvetica, Arial, sans-serif" font-size="11.5" font-style="italic" fill="#6a6a6a">request enters via the gateway</text>
  <rect x="460.0" y="220" width="360" height="60" rx="12" ry="12" fill="#9dd4c7" stroke="#4a4a4a" stroke-width="2"/>
  <text x="640.0" y="255.0" text-anchor="middle" font-family="-apple-system, Helvetica, Arial, sans-serif" font-size="14" font-weight="600" fill="#1a1a1a">POST /top-ups (Idempotency-Key)</text>
  <line x1="640.0" y1="280" x2="640.0" y2="328" stroke="#5a5a5a" stroke-width="1.8" marker-end="url(#arr)"/>
  <rect x="494.4" y="295.0" width="291.2" height="16" fill="#f8f6f3"/>
  <text x="640.0" y="307.0" text-anchor="middle" font-family="-apple-system, Helvetica, Arial, sans-serif" font-size="11.5" font-style="italic" fill="#6a6a6a">idempotency claim and top_up row in one txn</text>
  <rect x="460.0" y="330" width="360" height="60" rx="12" ry="12" fill="#9dd4c7" stroke="#4a4a4a" stroke-width="2"/>
  <text x="640.0" y="365.0" text-anchor="middle" font-family="-apple-system, Helvetica, Arial, sans-serif" font-size="14" font-weight="600" fill="#1a1a1a">Wallet: claim key + insert PENDING</text>
  <line x1="640.0" y1="390" x2="640.0" y2="438" stroke="#5a5a5a" stroke-width="1.8" marker-end="url(#arr)"/>
  <rect x="513.6" y="405.0" width="252.8" height="16" fill="#f8f6f3"/>
  <text x="640.0" y="417.0" text-anchor="middle" font-family="-apple-system, Helvetica, Arial, sans-serif" font-size="11.5" font-style="italic" fill="#6a6a6a">sync HTTP with derived key topup-&lt;id&gt;</text>
  <rect x="460.0" y="440" width="360" height="60" rx="12" ry="12" fill="#9dd4c7" stroke="#4a4a4a" stroke-width="2"/>
  <text x="640.0" y="475.0" text-anchor="middle" font-family="-apple-system, Helvetica, Arial, sans-serif" font-size="14" font-weight="600" fill="#1a1a1a">Wallet → Payment-Gateway</text>
  <line x1="640.0" y1="500" x2="640.0" y2="548" stroke="#5a5a5a" stroke-width="1.8" marker-end="url(#arr)"/>
  <rect x="504.0" y="515.0" width="272.0" height="16" fill="#f8f6f3"/>
  <text x="640.0" y="527.0" text-anchor="middle" font-family="-apple-system, Helvetica, Arial, sans-serif" font-size="11.5" font-style="italic" fill="#6a6a6a">PG dedups its own caller, records charge</text>
  <rect x="460.0" y="550" width="360" height="60" rx="12" ry="12" fill="#a8c5e6" stroke="#4a4a4a" stroke-width="2"/>
  <text x="640.0" y="585.0" text-anchor="middle" font-family="-apple-system, Helvetica, Arial, sans-serif" font-size="14" font-weight="600" fill="#1a1a1a">Payment-Gateway: claim + insert charge</text>
  <line x1="640.0" y1="610" x2="640.0" y2="658" stroke="#5a5a5a" stroke-width="1.8" marker-end="url(#arr)"/>
  <rect x="545.6" y="625.0" width="188.8" height="16" fill="#f8f6f3"/>
  <text x="640.0" y="637.0" text-anchor="middle" font-family="-apple-system, Helvetica, Arial, sans-serif" font-size="11.5" font-style="italic" fill="#6a6a6a">forwards the payment intent</text>
  <rect x="460.0" y="660" width="360" height="60" rx="12" ry="12" fill="#a8c5e6" stroke="#4a4a4a" stroke-width="2"/>
  <text x="640.0" y="695.0" text-anchor="middle" font-family="-apple-system, Helvetica, Arial, sans-serif" font-size="14" font-weight="600" fill="#1a1a1a">Payment-Gateway → mock provider</text>
  <line x1="640.0" y1="720" x2="640.0" y2="768" stroke="#5a5a5a" stroke-width="1.8" marker-end="url(#arr)"/>
  <rect x="513.6" y="735.0" width="252.8" height="16" fill="#f8f6f3"/>
  <text x="640.0" y="747.0" text-anchor="middle" font-family="-apple-system, Helvetica, Arial, sans-serif" font-size="11.5" font-style="italic" fill="#6a6a6a">response is sync; webhook fires later</text>
  <rect x="460.0" y="770" width="360" height="60" rx="12" ry="12" fill="#f4e4c1" stroke="#4a4a4a" stroke-width="2"/>
  <text x="640.0" y="805.0" text-anchor="middle" font-family="-apple-system, Helvetica, Arial, sans-serif" font-size="14" font-weight="600" fill="#1a1a1a">Provider: returns + schedules webhook</text>
  <line x1="640.0" y1="830" x2="640.0" y2="862" stroke="#5a5a5a" stroke-width="1.8" marker-end="url(#arr)"/>
  <rect x="513.6" y="837.0" width="252.8" height="16" fill="#f8f6f3"/>
  <text x="640.0" y="849.0" text-anchor="middle" font-family="-apple-system, Helvetica, Arial, sans-serif" font-size="11.5" font-style="italic" fill="#6a6a6a">asyncio.create_task — fire-and-forget</text>
  <rect x="170" y="866" width="940" height="6" fill="#1a1a1a"/>
  <text x="180" y="854" font-family="-apple-system, Helvetica, Arial, sans-serif" font-size="12" font-style="italic" fill="#5a5a5a">fork: synchronous response unwinds upward;  settlement continues asynchronously</text>
  <line x1="260.0" y1="872" x2="260.0" y2="924" stroke="#5a5a5a" stroke-width="1.8" marker-end="url(#arr)"/>
  <rect x="114.4" y="889.0" width="291.2" height="16" fill="#f8f6f3"/>
  <text x="260.0" y="901.0" text-anchor="middle" font-family="-apple-system, Helvetica, Arial, sans-serif" font-size="11.5" font-style="italic" fill="#6a6a6a">PG marks charge ACCEPTED, returns to wallet</text>
  <rect x="110" y="926" width="300" height="60" rx="12" ry="12" fill="#a8c5e6" stroke="#4a4a4a" stroke-width="2"/>
  <text x="260.0" y="961.0" text-anchor="middle" font-family="-apple-system, Helvetica, Arial, sans-serif" font-size="14" font-weight="600" fill="#1a1a1a">Payment-Gateway → Wallet: ACCEPTED</text>
  <line x1="260.0" y1="986" x2="260.0" y2="1034" stroke="#5a5a5a" stroke-width="1.8" marker-end="url(#arr)"/>
  <rect x="133.6" y="1001.0" width="252.8" height="16" fill="#f8f6f3"/>
  <text x="260.0" y="1013.0" text-anchor="middle" font-family="-apple-system, Helvetica, Arial, sans-serif" font-size="11.5" font-style="italic" fill="#6a6a6a">state-machine guard on the transition</text>
  <rect x="110" y="1036" width="300" height="60" rx="12" ry="12" fill="#9dd4c7" stroke="#4a4a4a" stroke-width="2"/>
  <text x="260.0" y="1071.0" text-anchor="middle" font-family="-apple-system, Helvetica, Arial, sans-serif" font-size="14" font-weight="600" fill="#1a1a1a">Wallet: → PROCESSING</text>
  <line x1="260.0" y1="1096" x2="260.0" y2="1144" stroke="#5a5a5a" stroke-width="1.8" marker-end="url(#arr)"/>
  <rect x="133.6" y="1111.0" width="252.8" height="16" fill="#f8f6f3"/>
  <text x="260.0" y="1123.0" text-anchor="middle" font-family="-apple-system, Helvetica, Arial, sans-serif" font-size="11.5" font-style="italic" fill="#6a6a6a">client gets ack — top_up not yet PAID</text>
  <rect x="110" y="1146" width="300" height="60" rx="12" ry="12" fill="#9dd4c7" stroke="#4a4a4a" stroke-width="2"/>
  <text x="260.0" y="1181.0" text-anchor="middle" font-family="-apple-system, Helvetica, Arial, sans-serif" font-size="14" font-weight="600" fill="#1a1a1a">Return 200 to client</text>
  <line x1="260.0" y1="1206" x2="260.0" y2="1228" stroke="#5a5a5a" stroke-width="1.8" marker-end="url(#arr)"/>
  <circle cx="260.0" cy="1244" r="14" fill="none" stroke="#4a4a4a" stroke-width="2"/>
  <circle cx="260.0" cy="1244" r="7" fill="#1a1a1a"/>
  <text x="260.0" y="1278" text-anchor="middle" font-family="-apple-system, Helvetica, Arial, sans-serif" font-size="12" font-style="italic" fill="#5a5a5a">client has 200 — sync done</text>
  <line x1="1000.0" y1="872" x2="1000.0" y2="924" stroke="#5a5a5a" stroke-width="1.8" marker-end="url(#arr)"/>
  <rect x="886.4" y="889.0" width="227.20000000000002" height="16" fill="#f8f6f3"/>
  <text x="1000.0" y="901.0" text-anchor="middle" font-family="-apple-system, Helvetica, Arial, sans-serif" font-size="11.5" font-style="italic" fill="#6a6a6a">~1s later, mock fires the webhook</text>
  <rect x="830" y="926" width="340" height="60" rx="12" ry="12" fill="#f4e4c1" stroke="#4a4a4a" stroke-width="2"/>
  <text x="1000.0" y="961.0" text-anchor="middle" font-family="-apple-system, Helvetica, Arial, sans-serif" font-size="14" font-weight="600" fill="#1a1a1a">Provider → Omnibus (signed webhook)</text>
  <line x1="1000.0" y1="986" x2="1000.0" y2="1034" stroke="#5a5a5a" stroke-width="1.8" marker-end="url(#arr)"/>
  <rect x="828.8" y="1001.0" width="342.40000000000003" height="16" fill="#f8f6f3"/>
  <text x="1000.0" y="1013.0" text-anchor="middle" font-family="-apple-system, Helvetica, Arial, sans-serif" font-size="11.5" font-style="italic" fill="#6a6a6a">HMAC verified, event_id deduped, outbox row written</text>
  <rect x="830" y="1036" width="340" height="60" rx="12" ry="12" fill="#e8e6e3" stroke="#4a4a4a" stroke-width="2"/>
  <text x="1000.0" y="1071.0" text-anchor="middle" font-family="-apple-system, Helvetica, Arial, sans-serif" font-size="14" font-weight="600" fill="#1a1a1a">Omnibus: verify + record statement</text>
  <line x1="1000.0" y1="1096" x2="1000.0" y2="1144" stroke="#5a5a5a" stroke-width="1.8" marker-end="url(#arr)"/>
  <rect x="892.8" y="1111.0" width="214.4" height="16" fill="#f8f6f3"/>
  <text x="1000.0" y="1123.0" text-anchor="middle" font-family="-apple-system, Helvetica, Arial, sans-serif" font-size="11.5" font-style="italic" fill="#6a6a6a">outbox publisher drains the row</text>
  <rect x="830" y="1146" width="340" height="60" rx="12" ry="12" fill="#e9d8c4" stroke="#4a4a4a" stroke-width="2"/>
  <text x="1000.0" y="1181.0" text-anchor="middle" font-family="-apple-system, Helvetica, Arial, sans-serif" font-size="14" font-weight="600" fill="#1a1a1a">RabbitMQ: settlement.completed</text>
  <line x1="1000.0" y1="1206" x2="1000.0" y2="1254" stroke="#5a5a5a" stroke-width="1.8" marker-end="url(#arr)"/>
  <rect x="854.4" y="1221.0" width="291.2" height="16" fill="#f8f6f3"/>
  <text x="1000.0" y="1233.0" text-anchor="middle" font-family="-apple-system, Helvetica, Arial, sans-serif" font-size="11.5" font-style="italic" fill="#6a6a6a">event deduped, state guard, balance updated</text>
  <rect x="830" y="1256" width="340" height="60" rx="12" ry="12" fill="#9dd4c7" stroke="#4a4a4a" stroke-width="2"/>
  <text x="1000.0" y="1291.0" text-anchor="middle" font-family="-apple-system, Helvetica, Arial, sans-serif" font-size="14" font-weight="600" fill="#1a1a1a">Wallet consumer: → PAID + credit</text>
  <line x1="1000.0" y1="1316" x2="1000.0" y2="1364" stroke="#5a5a5a" stroke-width="1.8" marker-end="url(#arr)"/>
  <rect x="867.2" y="1331.0" width="265.6" height="16" fill="#f8f6f3"/>
  <text x="1000.0" y="1343.0" text-anchor="middle" font-family="-apple-system, Helvetica, Arial, sans-serif" font-size="11.5" font-style="italic" fill="#6a6a6a">wallet emits its own state-change event</text>
  <rect x="830" y="1366" width="340" height="60" rx="12" ry="12" fill="#e9d8c4" stroke="#4a4a4a" stroke-width="2"/>
  <text x="1000.0" y="1401.0" text-anchor="middle" font-family="-apple-system, Helvetica, Arial, sans-serif" font-size="14" font-weight="600" fill="#1a1a1a">RabbitMQ: top_up.paid</text>
  <line x1="1000.0" y1="1426" x2="1000.0" y2="1448" stroke="#5a5a5a" stroke-width="1.8" marker-end="url(#arr)"/>
  <circle cx="1000.0" cy="1464" r="14" fill="none" stroke="#4a4a4a" stroke-width="2"/>
  <circle cx="1000.0" cy="1464" r="7" fill="#1a1a1a"/>
  <text x="1000.0" y="1498" text-anchor="middle" font-family="-apple-system, Helvetica, Arial, sans-serif" font-size="12" font-style="italic" fill="#5a5a5a">PAID — balance credited</text>
</svg>