<svg xmlns="http://www.w3.org/2000/svg" viewBox="0 0 1200 1180">
  <defs>
    <marker id="arrow-blue" markerWidth="10" markerHeight="7" refX="9" refY="3.5" orient="auto"><polygon points="0 0, 10 3.5, 0 7" fill="#2563eb"/></marker>
    <marker id="arrow-green" markerWidth="10" markerHeight="7" refX="9" refY="3.5" orient="auto"><polygon points="0 0, 10 3.5, 0 7" fill="#16a34a"/></marker>
    <marker id="arrow-purple" markerWidth="10" markerHeight="7" refX="9" refY="3.5" orient="auto"><polygon points="0 0, 10 3.5, 0 7" fill="#9333ea"/></marker>
    <marker id="arrow-orange" markerWidth="10" markerHeight="7" refX="9" refY="3.5" orient="auto"><polygon points="0 0, 10 3.5, 0 7" fill="#ea580c"/></marker>
  </defs>
  <rect x="0" y="0" width="1200" height="1180" fill="#ffffff"/>
  <text x="600" y="30" text-anchor="middle" font-family="Helvetica,Arial,sans-serif" font-size="18" font-weight="600" fill="#111827">Top-Up Flow — Sequence</text>
  <rect x="35" y="60" width="130" height="50" rx="6" ry="6" fill="#eff6ff" stroke="#bfdbfe" stroke-width="1.5"/>
  <text x="100" y="90" text-anchor="middle" font-family="Helvetica,Arial,sans-serif" font-size="13" font-weight="600" fill="#111827">Client</text>
  <rect x="203" y="60" width="130" height="50" rx="6" ry="6" fill="#eff6ff" stroke="#bfdbfe" stroke-width="1.5"/>
  <text x="268" y="90" text-anchor="middle" font-family="Helvetica,Arial,sans-serif" font-size="13" font-weight="600" fill="#111827">Gateway</text>
  <rect x="371" y="60" width="130" height="50" rx="6" ry="6" fill="#eff6ff" stroke="#bfdbfe" stroke-width="1.5"/>
  <text x="436" y="90" text-anchor="middle" font-family="Helvetica,Arial,sans-serif" font-size="13" font-weight="600" fill="#111827">Investment-Wallet</text>
  <rect x="539" y="60" width="130" height="50" rx="6" ry="6" fill="#eff6ff" stroke="#bfdbfe" stroke-width="1.5"/>
  <text x="604" y="90" text-anchor="middle" font-family="Helvetica,Arial,sans-serif" font-size="13" font-weight="600" fill="#111827">Payment-Gateway</text>
  <rect x="707" y="60" width="130" height="50" rx="6" ry="6" fill="#eff6ff" stroke="#bfdbfe" stroke-width="1.5"/>
  <text x="772" y="90" text-anchor="middle" font-family="Helvetica,Arial,sans-serif" font-size="13" font-weight="600" fill="#111827">Provider (mock)</text>
  <rect x="875" y="60" width="130" height="50" rx="6" ry="6" fill="#eff6ff" stroke="#bfdbfe" stroke-width="1.5"/>
  <text x="940" y="90" text-anchor="middle" font-family="Helvetica,Arial,sans-serif" font-size="13" font-weight="600" fill="#111827">Omnibus</text>
  <rect x="1043" y="60" width="130" height="50" rx="6" ry="6" fill="#eff6ff" stroke="#bfdbfe" stroke-width="1.5"/>
  <text x="1108" y="90" text-anchor="middle" font-family="Helvetica,Arial,sans-serif" font-size="13" font-weight="600" fill="#111827">RabbitMQ</text>
  <line x1="100" y1="110" x2="100" y2="1100" stroke="#9ca3af" stroke-width="1" stroke-dasharray="4,3"/>
  <line x1="268" y1="110" x2="268" y2="1100" stroke="#9ca3af" stroke-width="1" stroke-dasharray="4,3"/>
  <line x1="436" y1="110" x2="436" y2="1100" stroke="#9ca3af" stroke-width="1" stroke-dasharray="4,3"/>
  <line x1="604" y1="110" x2="604" y2="1100" stroke="#9ca3af" stroke-width="1" stroke-dasharray="4,3"/>
  <line x1="772" y1="110" x2="772" y2="1100" stroke="#9ca3af" stroke-width="1" stroke-dasharray="4,3"/>
  <line x1="940" y1="110" x2="940" y2="1100" stroke="#9ca3af" stroke-width="1" stroke-dasharray="4,3"/>
  <line x1="1108" y1="110" x2="1108" y2="1100" stroke="#9ca3af" stroke-width="1" stroke-dasharray="4,3"/>
  <line x1="100" y1="140" x2="268" y2="140" stroke="#2563eb" stroke-width="1.5" marker-end="url(#arrow-blue)"/>
  <rect x="61.5" y="122" width="245" height="14" fill="#ffffff" opacity="0.92"/>
  <text x="184.0" y="133" text-anchor="middle" font-family="Helvetica,Arial,sans-serif" font-size="12" fill="#111827">POST /top-ups  (Idempotency-Key K1)</text>
  <line x1="268" y1="190" x2="436" y2="190" stroke="#2563eb" stroke-width="1.5" marker-end="url(#arrow-blue)"/>
  <rect x="312.0" y="172" width="80" height="14" fill="#ffffff" opacity="0.92"/>
  <text x="352.0" y="183" text-anchor="middle" font-family="Helvetica,Arial,sans-serif" font-size="12" fill="#111827">forward</text>
  <path d="M 436 240 h 36 v 22 h -36" stroke="#ea580c" stroke-width="1.5" fill="none" marker-end="url(#arrow-orange)"/>
  <text x="480" y="255" font-family="Helvetica,Arial,sans-serif" font-size="12" fill="#111827">dedup K1 + insert top_up PENDING (txn)</text>
  <line x1="436" y1="300" x2="604" y2="300" stroke="#2563eb" stroke-width="1.5" marker-end="url(#arrow-blue)"/>
  <rect x="306.5" y="282" width="427" height="14" fill="#ffffff" opacity="0.92"/>
  <text x="520.0" y="293" text-anchor="middle" font-family="Helvetica,Arial,sans-serif" font-size="12" fill="#111827">POST /charges  (metadata.top_up_id, Idempotency-Key topup-id)</text>
  <path d="M 604 350 h 36 v 22 h -36" stroke="#ea580c" stroke-width="1.5" fill="none" marker-end="url(#arrow-orange)"/>
  <text x="648" y="365" font-family="Helvetica,Arial,sans-serif" font-size="12" fill="#111827">dedup + insert charge CREATED (txn)</text>
  <line x1="604" y1="410" x2="772" y2="410" stroke="#2563eb" stroke-width="1.5" marker-end="url(#arrow-blue)"/>
  <rect x="639.0" y="392" width="98" height="14" fill="#ffffff" opacity="0.92"/>
  <text x="688.0" y="403" text-anchor="middle" font-family="Helvetica,Arial,sans-serif" font-size="12" fill="#111827">create payment</text>
  <line x1="772" y1="460" x2="604" y2="460" stroke="#16a34a" stroke-width="1.5" stroke-dasharray="6,3" marker-end="url(#arrow-green)"/>
  <rect x="648.0" y="442" width="80" height="14" fill="#ffffff" opacity="0.92"/>
  <text x="688.0" y="453" text-anchor="middle" font-family="Helvetica,Arial,sans-serif" font-size="12" fill="#111827">payment_id</text>
  <line x1="604" y1="510" x2="436" y2="510" stroke="#16a34a" stroke-width="1.5" stroke-dasharray="6,3" marker-end="url(#arrow-green)"/>
  <rect x="453.5" y="492" width="133" height="14" fill="#ffffff" opacity="0.92"/>
  <text x="520.0" y="503" text-anchor="middle" font-family="Helvetica,Arial,sans-serif" font-size="12" fill="#111827">charge_id, ACCEPTED</text>
  <path d="M 436 560 h 36 v 22 h -36" stroke="#ea580c" stroke-width="1.5" fill="none" marker-end="url(#arrow-orange)"/>
  <text x="480" y="575" font-family="Helvetica,Arial,sans-serif" font-size="12" fill="#111827">top_up: PENDING -> PROCESSING</text>
  <line x1="436" y1="620" x2="268" y2="620" stroke="#16a34a" stroke-width="1.5" stroke-dasharray="6,3" marker-end="url(#arrow-green)"/>
  <rect x="250.5" y="602" width="203" height="14" fill="#ffffff" opacity="0.92"/>
  <text x="352.0" y="613" text-anchor="middle" font-family="Helvetica,Arial,sans-serif" font-size="12" fill="#111827">200 { top_up_id, PROCESSING }</text>
  <line x1="268" y1="670" x2="100" y2="670" stroke="#16a34a" stroke-width="1.5" stroke-dasharray="6,3" marker-end="url(#arrow-green)"/>
  <rect x="135.0" y="652" width="98" height="14" fill="#ffffff" opacity="0.92"/>
  <text x="184.0" y="663" text-anchor="middle" font-family="Helvetica,Arial,sans-serif" font-size="12" fill="#111827">200 PROCESSING</text>
  <line x1="60" y1="730" x2="1140" y2="730" stroke="#d1d5db" stroke-width="1" stroke-dasharray="3,3"/>
  <rect x="500" y="718" width="200" height="22" rx="11" fill="#fff7ed" stroke="#fed7aa"/>
  <text x="600" y="733" text-anchor="middle" font-family="Helvetica,Arial,sans-serif" font-size="12" font-weight="600" fill="#9a3412">ASYNC  —  settlement reconciliation</text>
  <line x1="772" y1="780" x2="940" y2="780" stroke="#9333ea" stroke-width="1.5" stroke-dasharray="6,3" marker-end="url(#arrow-purple)"/>
  <rect x="667.0" y="762" width="378" height="14" fill="#ffffff" opacity="0.92"/>
  <text x="856.0" y="773" text-anchor="middle" font-family="Helvetica,Arial,sans-serif" font-size="12" fill="#111827">signed webhook  { event_id, metadata.top_up_id, paid }</text>
  <path d="M 940 840 h 36 v 22 h -36" stroke="#ea580c" stroke-width="1.5" fill="none" marker-end="url(#arrow-orange)"/>
  <text x="984" y="855" font-family="Helvetica,Arial,sans-serif" font-size="12" fill="#111827">dedup + statement + outbox (txn)</text>
  <line x1="940" y1="900" x2="1108" y2="900" stroke="#9333ea" stroke-width="1.5" stroke-dasharray="6,3" marker-end="url(#arrow-purple)"/>
  <rect x="870.0" y="882" width="308" height="14" fill="#ffffff" opacity="0.92"/>
  <text x="1024.0" y="893" text-anchor="middle" font-family="Helvetica,Arial,sans-serif" font-size="12" fill="#111827">publish settlement.completed  (outbox drain)</text>
  <line x1="1108" y1="950" x2="436" y2="950" stroke="#9333ea" stroke-width="1.5" stroke-dasharray="6,3" marker-end="url(#arrow-purple)"/>
  <rect x="674.0" y="932" width="196" height="14" fill="#ffffff" opacity="0.92"/>
  <text x="772.0" y="943" text-anchor="middle" font-family="Helvetica,Arial,sans-serif" font-size="12" fill="#111827">deliver settlement.completed</text>
  <path d="M 436 1010 h 36 v 22 h -36" stroke="#ea580c" stroke-width="1.5" fill="none" marker-end="url(#arrow-orange)"/>
  <text x="480" y="1025" font-family="Helvetica,Arial,sans-serif" font-size="12" fill="#111827">state guard -> PAID + credit wallet + outbox top_up.paid</text>
  <line x1="436" y1="1070" x2="1108" y2="1070" stroke="#9333ea" stroke-width="1.5" stroke-dasharray="6,3" marker-end="url(#arrow-purple)"/>
  <rect x="649.5" y="1052" width="245" height="14" fill="#ffffff" opacity="0.92"/>
  <text x="772.0" y="1063" text-anchor="middle" font-family="Helvetica,Arial,sans-serif" font-size="12" fill="#111827">publish top_up.paid  (outbox drain)</text>
  <g font-family="Helvetica,Arial,sans-serif" font-size="11" fill="#374151">
    <line x1="60" y1="1150" x2="100" y2="1150" stroke="#2563eb" stroke-width="1.5" marker-end="url(#arrow-blue)"/>
    <text x="108" y="1154">sync HTTP request</text>
    <line x1="240" y1="1150" x2="280" y2="1150" stroke="#16a34a" stroke-width="1.5" stroke-dasharray="6,3" marker-end="url(#arrow-green)"/>
    <text x="288" y="1154">sync return</text>
    <line x1="380" y1="1150" x2="420" y2="1150" stroke="#9333ea" stroke-width="1.5" stroke-dasharray="6,3" marker-end="url(#arrow-purple)"/>
    <text x="428" y="1154">async event / webhook</text>
    <line x1="580" y1="1150" x2="620" y2="1150" stroke="#ea580c" stroke-width="1.5" marker-end="url(#arrow-orange)"/>
    <text x="628" y="1154">internal txn / state change</text>
  </g>
</svg>